<svg width="308" height="115" viewBox="0 0 308 115" fill="none" xmlns="http://www.w3.org/2000/svg">
<path d="M31.456 65L18.816 47.848H15.36V65H3.2V20.2H15.36V37.032H18.88L30.176 20.2H44.96L28.736 42.056L46.4 65H31.456ZM80.1225 20.2V36.776H96.6985V20.2H108.858V65H96.6985V47.944H80.1225V65H67.9625V20.2H80.1225ZM162.731 20.2L179.691 65H166.795L163.819 56.456H147.083L144.139 65H131.435L148.395 20.2H162.731ZM155.467 32.36L150.859 45.608H160.043L155.467 32.36ZM220.818 19.368C234.674 19.368 244.498 29.224 244.498 42.6C244.498 55.976 234.674 65.832 220.818 65.832C206.962 65.832 197.138 55.976 197.138 42.6C197.138 29.224 206.962 19.368 220.818 19.368ZM220.818 31.016C214.29 31.016 209.778 35.752 209.778 42.6C209.778 49.448 214.29 54.184 220.818 54.184C227.346 54.184 231.858 49.448 231.858 42.6C231.858 35.752 227.346 31.016 220.818 31.016ZM305.226 24.104L299.978 34.056C297.034 32.392 292.586 30.312 287.05 30.312C283.786 30.312 281.29 31.208 281.29 33.224C281.29 35.752 285.866 36.008 290.442 36.904L291.882 37.192C301.13 38.984 305.834 43.432 305.834 50.312C305.834 61.64 296.266 65.832 286.73 65.832C278.698 65.832 271.402 63.912 266.282 60.264L272.234 50.344C275.786 52.488 280.074 54.952 286.89 54.952C290.154 54.952 292.554 54.056 292.554 51.848C292.554 49.512 289.77 49.096 284.202 48.136L282.506 47.848C272.202 46.088 267.914 41.64 268.138 33.704C268.362 25.128 275.562 19.4 286.314 19.4C292.17 19.4 297.45 20.008 305.226 24.104Z" fill="white"/>
<path d="M20.16 86.568L17.776 90.952C16.176 89.992 13.984 89.064 11.36 89.064C9.328 89.064 7.84 89.752 7.84 91.08C7.84 92.488 9.968 92.824 12.448 93.256L13.376 93.416C17.728 94.168 20.464 96.2 20.464 99.864C20.464 105.192 15.872 107.416 11.072 107.416C7.344 107.416 3.696 106.44 1.216 104.568L3.888 100.216C5.6 101.384 7.968 102.568 11.12 102.568C13.136 102.568 14.672 101.88 14.672 100.488C14.672 99.144 13.168 98.76 10.24 98.312L9.12 98.136C4.512 97.416 2.016 95.336 2.096 91.304C2.176 86.952 5.888 84.2 11.12 84.2C14.144 84.2 16.768 84.696 20.16 86.568ZM52.8103 84.6L44.4423 98.376V107H39.0823V98.408L30.5703 84.6H36.7623L41.7863 93.544L46.7943 84.6H52.8103ZM81.2663 86.568L78.8823 90.952C77.2823 89.992 75.0903 89.064 72.4663 89.064C70.4343 89.064 68.9463 89.752 68.9463 91.08C68.9463 92.488 71.0743 92.824 73.5543 93.256L74.4823 93.416C78.8343 94.168 81.5703 96.2 81.5703 99.864C81.5703 105.192 76.9783 107.416 72.1783 107.416C68.4503 107.416 64.8023 106.44 62.3223 104.568L64.9943 100.216C66.7063 101.384 69.0743 102.568 72.2263 102.568C74.2423 102.568 75.7783 101.88 75.7783 100.488C75.7783 99.144 74.2743 98.76 71.3463 98.312L70.2263 98.136C65.6183 97.416 63.1223 95.336 63.2023 91.304C63.2823 86.952 66.9943 84.2 72.2263 84.2C75.2503 84.2 77.8743 84.696 81.2663 86.568ZM111.183 84.6V89.56H104.559V107H99.215V89.56H92.575V84.6H111.183ZM140.365 102.184V107H123.213V84.6H140.301V89.416H128.557V93.288H139.613V98.088H128.557V102.184H140.365ZM178.954 84.6V107H173.61V91.672L169.13 104.888H163.45L158.97 91.72V107H153.626V84.6H161.194L166.298 98.824L171.37 84.6H178.954ZM210.76 86.568L208.376 90.952C206.776 89.992 204.584 89.064 201.96 89.064C199.928 89.064 198.44 89.752 198.44 91.08C198.44 92.488 200.568 92.824 203.048 93.256L203.976 93.416C208.328 94.168 211.064 96.2 211.064 99.864C211.064 105.192 206.472 107.416 201.672 107.416C197.944 107.416 194.296 106.44 191.816 104.568L194.488 100.216C196.2 101.384 198.568 102.568 201.72 102.568C203.736 102.568 205.272 101.88 205.272 100.488C205.272 99.144 203.768 98.76 200.84 98.312L199.72 98.136C195.112 97.416 192.616 95.336 192.696 91.304C192.776 86.952 196.488 84.2 201.72 84.2C204.744 84.2 207.368 84.696 210.76 86.568Z" fill="#FF8717"/>
</svg>
