<svg width="186" height="273" viewBox="0 0 186 273" fill="none" xmlns="http://www.w3.org/2000/svg">
<path d="M99.1702 72.3361L103.26 64.5162C103.32 64.3961 103.313 64.2828 103.24 64.1761C90.9102 45.7761 64.6802 47.2661 54.3302 66.6761C47.7102 79.0961 52.1602 94.9061 63.7302 102.846C68.2902 105.979 73.4402 107.613 79.1802 107.746C79.4868 107.753 79.6402 107.909 79.6402 108.216V114.826C79.6396 115.453 79.5118 116.073 79.2646 116.648C79.0175 117.224 78.6561 117.743 78.2024 118.174C77.7487 118.606 77.2123 118.94 76.6257 119.157C76.0391 119.374 75.4145 119.469 74.7901 119.436C59.3801 118.656 45.5101 105.456 41.1601 91.9561C38.0401 82.2828 38.4002 72.9828 42.2402 64.0561C54.5302 35.4661 93.3601 29.9062 111.94 55.5762C112.513 56.3628 113.267 56.6228 114.2 56.3562L119.36 54.9062C120.247 54.6528 120.387 54.1795 119.78 53.4861C119.12 52.7261 118.143 51.5561 116.85 49.9761C107.41 38.4228 95.6668 32.3428 81.6202 31.7361C42.7602 30.0461 18.2101 73.0661 39.6301 105.686C46.7901 116.579 57.1968 123.543 70.8501 126.576C71.1968 126.656 71.2901 126.856 71.1301 127.176C69.4835 130.496 68.3668 133.989 67.7802 137.656C67.7268 138.016 67.5235 138.156 67.1702 138.076C44.2102 133.236 26.2902 115.376 21.1202 92.9461C11.5502 51.4061 47.8801 12.5762 90.3501 20.5162C110.83 24.3362 126.95 37.8362 135.15 57.1062C135.283 57.4195 135.5 57.6595 135.8 57.8262C140.95 60.6462 142.67 63.2961 145.4 66.9861C145.813 67.5528 145.95 67.4928 145.81 66.8061C138.38 31.9461 106.74 7.86615 71.1802 12.5261C18.8002 19.3861 -6.49986 81.1061 27.6301 122.376C37.6901 134.536 50.8068 142.346 66.9801 145.806C67.3401 145.879 67.5402 146.096 67.5802 146.456C68.0268 150.476 69.1368 154.299 70.9101 157.926C71.0701 158.246 70.9702 158.399 70.6102 158.386C69.0502 158.306 67.5335 158.133 66.0602 157.866C9.45016 147.786 -18.4598 83.2561 13.3902 35.4461C42.1902 -7.79385 104.25 -12.3338 138.87 26.5762C152.25 41.6228 158.977 59.7495 159.05 80.9561C159.097 94.0495 159.133 107.149 159.16 120.256C159.167 120.596 159.307 120.856 159.58 121.036C175.67 131.656 175.33 153.636 159.58 164.636C159.313 164.823 159.177 165.083 159.17 165.416C159.097 180.409 159.093 195.413 159.16 210.426C159.167 212.906 159.617 214.773 160.51 216.026C164.84 222.136 174.42 217.796 173.34 210.726C172.8 207.146 170.557 205.143 166.61 204.716C166.297 204.683 166.14 204.509 166.14 204.196V193.216C166.14 192.896 166.3 192.729 166.62 192.716C176.38 192.316 184.09 200.546 185.31 209.476C185.984 214.463 184.703 219.136 181.47 223.496C172.77 235.236 153.63 232.666 148.32 218.826C147.527 216.773 147.133 213.633 147.14 209.406C147.147 200.179 147.143 191.026 147.13 181.946C147.13 181.779 147.047 181.696 146.88 181.696H139.63C139.477 181.696 139.4 181.776 139.4 181.936C139.387 205.069 139.387 228.246 139.4 251.466C139.41 266.096 157.66 260.236 153.1 250.176C151.973 247.689 149.903 246.299 146.89 246.006C146.557 245.973 146.39 245.789 146.39 245.456V234.466C146.39 234.153 146.55 233.996 146.87 233.996C159.9 234.226 168.6 246.476 164.87 258.916C159.59 276.526 134.26 276.846 128.43 259.456C127.737 257.409 127.39 254.029 127.39 249.316C127.39 226.809 127.39 204.349 127.39 181.936C127.39 181.776 127.307 181.696 127.14 181.696H120.14C119.973 181.703 119.89 181.786 119.89 181.946C119.89 203.053 119.89 224.206 119.89 245.406C119.89 255.436 120.08 262.406 112.81 268.106C96.0702 281.216 73.6901 262.286 84.0401 243.636C87.3135 237.743 92.7401 234.503 100.32 233.916C100.7 233.883 100.89 234.056 100.89 234.436V245.436C100.89 245.763 100.727 245.943 100.4 245.976C93.5602 246.646 91.1402 254.606 96.4002 258.926C99.5802 261.526 104.98 260.356 106.94 256.726C107.56 255.579 107.87 253.833 107.87 251.486C107.897 228.259 107.9 205.076 107.88 181.936C107.88 181.776 107.8 181.696 107.64 181.696H100.4C100.227 181.696 100.14 181.779 100.14 181.946C100.133 191.679 100.137 201.513 100.15 211.446C100.19 233.156 71.2702 238.256 63.1702 218.916C58.0402 206.666 67.1102 193.186 80.6502 192.726C80.9768 192.713 81.1402 192.869 81.1402 193.196V204.146C81.1402 204.399 81.0135 204.546 80.7601 204.586C70.4301 206.176 72.8002 219.786 81.8902 218.976C84.1702 218.776 85.8868 217.719 87.0401 215.806C87.7601 214.606 88.1235 212.793 88.1301 210.366C88.1501 195.286 88.1501 180.206 88.1301 165.126C88.13 164.978 88.0944 164.832 88.0265 164.701C87.9585 164.57 87.8603 164.459 87.7402 164.376C72.3202 153.576 72.0101 132.036 87.7201 121.306C87.8463 121.22 87.9497 121.104 88.0211 120.968C88.0925 120.832 88.13 120.68 88.1301 120.526C88.1435 107.399 88.1502 94.2895 88.1502 81.1961C88.1502 78.6095 87.8101 76.6695 87.1301 75.3761C83.8001 68.9861 74.8301 69.4361 71.7201 75.7561C68.9701 81.3361 72.9201 87.5161 79.1301 88.1261C79.4701 88.1595 79.6402 88.3495 79.6402 88.6961V99.4661C79.6402 100.066 79.3435 100.336 78.7501 100.276C61.5401 98.5661 52.2902 79.8062 63.7702 66.0462C73.9502 53.8562 92.8802 57.3661 99.0302 72.3361C99.0702 72.4428 99.1168 72.4428 99.1702 72.3361ZM88.6301 139.046C88.2301 147.426 94.5701 154.496 103.26 153.656C103.6 153.623 103.787 153.439 103.82 153.106C104.73 144.436 97.8102 137.656 89.1502 138.506C88.8235 138.539 88.6501 138.719 88.6301 139.046ZM144.31 153.706C152.73 154.016 159.92 147.796 158.87 139.016C158.837 138.723 158.67 138.563 158.37 138.536C149.62 137.626 142.91 144.656 143.7 153.136C143.715 153.288 143.784 153.429 143.897 153.534C144.009 153.639 144.156 153.7 144.31 153.706Z" fill="white"/>
</svg>
